<svg viewBox="0 0 390 844" xmlns="http://www.w3.org/2000/svg" font-family="'Segoe UI', system-ui, -apple-system, sans-serif">
  <defs>
    <linearGradient id="hdr" x1="0" y1="0" x2="0" y2="1">
      <stop offset="0" stop-color="#0F172A"/>
      <stop offset="1" stop-color="#1E293B"/>
    </linearGradient>
    <filter id="card" x="-8%" y="-12%" width="116%" height="130%">
      <feDropShadow dx="0" dy="2" stdDeviation="6" flood-color="#0F172A" flood-opacity="0.08"/>
    </filter>
    <filter id="fab" x="-60%" y="-60%" width="220%" height="220%">
      <feDropShadow dx="0" dy="4" stdDeviation="6" flood-color="#2563EB" flood-opacity="0.45"/>
    </filter>
  </defs>

  <rect width="390" height="844" fill="#F8FAFC"/>

  <!-- Header (status bar + app bar) -->
  <rect width="390" height="100" fill="url(#hdr)"/>
  <text x="22" y="29" fill="#FFFFFF" font-size="13" font-weight="600">9:41</text>
  <rect x="312" y="26" width="3" height="4" fill="#FFFFFF"/>
  <rect x="318" y="23" width="3" height="7" fill="#FFFFFF"/>
  <rect x="324" y="20" width="3" height="10" fill="#FFFFFF"/>
  <rect x="350" y="20" width="20" height="10" rx="2" fill="none" stroke="#FFFFFF" stroke-width="1.2"/>
  <rect x="352" y="22" width="13" height="6" rx="1" fill="#FFFFFF"/>
  <rect x="371" y="22.5" width="2" height="5" rx="1" fill="#FFFFFF"/>
  <text x="20" y="80" font-size="20">&#128295;</text>
  <text x="50" y="80" fill="#FFFFFF" font-size="17" font-weight="700">HomeRescue</text>
  <circle cx="356" cy="72" r="15" fill="#334155"/>
  <text x="356" y="77" fill="#FFFFFF" font-size="12" font-weight="600" text-anchor="middle">A</text>

  <!-- Section title -->
  <text x="16" y="136" fill="#0F172A" font-size="22" font-weight="700">Open Issues</text>
  <text x="16" y="158" fill="#64748B" font-size="12">1 unresolved &#183; most recent first</text>

  <!-- Card A: diagnosing -->
  <rect x="16" y="178" width="358" height="148" rx="14" fill="#FFFFFF" stroke="#EAEEF3" filter="url(#card)"/>
  <rect x="16" y="192" width="4" height="120" rx="2" fill="#F59E0B"/>
  <text x="30" y="208" font-size="15.5" font-weight="700" fill="#0F172A">Samsung &#183; Refrigerator</text>
  <rect x="254" y="196" width="104" height="22" rx="11" fill="#FEF3C7"/>
  <circle cx="268" cy="207" r="3" fill="#F59E0B"/>
  <text x="278" y="211" font-size="11" font-weight="700" fill="#B45309">DIAGNOSING</text>
  <text x="30" y="230" font-size="11.5" fill="#94A3B8">RF28R7201 &#183; updated 2h ago</text>
  <text x="30" y="254" font-size="12.5" fill="#475569">Fresh-food warm; freezer still cold.</text>
  <rect x="30" y="266" width="314" height="46" rx="8" fill="#EFF6FF"/>
  <text x="42" y="284" font-size="12" fill="#1E40AF"><tspan font-weight="700">Next &#8594;</tspan> Confirm coils are clean,</text>
  <text x="42" y="302" font-size="12" fill="#1E40AF">then test the evaporator fan.</text>
  <text x="350" y="262" font-size="22" fill="#CBD5E1" text-anchor="middle">&#8250;</text>

  <!-- Footer -->
  <text x="16" y="366" font-size="13" fill="#64748B">Showing open issues &#183; <tspan fill="#2563EB" font-weight="600">View resolved (4)</tspan></text>

  <!-- FAB -->
  <circle cx="334" cy="762" r="28" fill="#2563EB" filter="url(#fab)"/>
  <text x="334" y="773" font-size="30" font-weight="300" fill="#FFFFFF" text-anchor="middle">+</text>

  <!-- Home indicator -->
  <rect x="145" y="828" width="100" height="5" rx="2.5" fill="#CBD5E1"/>
</svg>
